<svg width="390" height="46" viewBox="0 0 390 46" fill="none" xmlns="http://www.w3.org/2000/svg">
<path d="M25.0558 29.5518V20.5457H24.9264L22.1934 22.4642V20.5762L25.0635 18.5664H27.02V29.5518H25.0558ZM29.7852 21.779C29.7852 20.7538 30.1405 19.9164 30.851 19.2668C31.5666 18.6172 32.4878 18.2923 33.6145 18.2923C34.7006 18.2923 35.5938 18.5892 36.2942 19.183C36.9996 19.7768 37.3524 20.5331 37.3524 21.4517C37.3524 22.0404 37.1747 22.6241 36.8195 23.2026C36.4642 23.7761 35.8196 24.5247 34.8858 25.4484L32.5867 27.7551V27.8845H37.5199V29.5518H29.8918V28.1891L33.5536 24.4435C34.3047 23.6822 34.8046 23.1113 35.0533 22.7306C35.302 22.3449 35.4263 21.9592 35.4263 21.5735C35.4263 21.0913 35.2487 20.6929 34.8934 20.3783C34.5432 20.0636 34.0966 19.9063 33.5536 19.9063C32.9801 19.9063 32.5157 20.0788 32.1604 20.4239C31.8051 20.7691 31.6275 21.2208 31.6275 21.779V21.8095H29.7852V21.779ZM40.8789 28.387C40.5236 28.387 40.2318 28.2728 40.0034 28.0444C39.775 27.816 39.6608 27.5293 39.6608 27.1842C39.6608 26.834 39.775 26.5472 40.0034 26.3239C40.2318 26.0955 40.5236 25.9813 40.8789 25.9813C41.2392 25.9813 41.5311 26.0955 41.7544 26.3239C41.9828 26.5472 42.0969 26.834 42.0969 27.1842C42.0969 27.5293 41.9828 27.816 41.7544 28.0444C41.5311 28.2728 41.2392 28.387 40.8789 28.387ZM40.8789 22.6773C40.5236 22.6773 40.2318 22.5657 40.0034 22.3424C39.775 22.114 39.6608 21.8272 39.6608 21.4821C39.6608 21.1319 39.775 20.8452 40.0034 20.6219C40.2318 20.3935 40.5236 20.2793 40.8789 20.2793C41.2392 20.2793 41.5311 20.3935 41.7544 20.6219C41.9828 20.8452 42.0969 21.1319 42.0969 21.4821C42.0969 21.8272 41.9828 22.114 41.7544 22.3424C41.5311 22.5657 41.2392 22.6773 40.8789 22.6773ZM44.2988 21.779C44.2988 20.7538 44.6541 19.9164 45.3646 19.2668C46.0802 18.6172 47.0014 18.2923 48.1281 18.2923C49.2142 18.2923 50.1074 18.5892 50.8078 19.183C51.5133 19.7768 51.866 20.5331 51.866 21.4517C51.866 22.0404 51.6884 22.6241 51.3331 23.2026C50.9778 23.7761 50.3333 24.5247 49.3994 25.4484L47.1004 27.7551V27.8845H52.0335V29.5518H44.4054V28.1891L48.0672 24.4435C48.8183 23.6822 49.3182 23.1113 49.5669 22.7306C49.8156 22.3449 49.94 21.9592 49.94 21.5735C49.94 21.0913 49.7623 20.6929 49.4071 20.3783C49.0569 20.0636 48.6102 19.9063 48.0672 19.9063C47.4937 19.9063 47.0293 20.0788 46.674 20.4239C46.3188 20.7691 46.1411 21.2208 46.1411 21.779V21.8095H44.2988V21.779ZM53.87 21.779C53.87 20.7538 54.2252 19.9164 54.9358 19.2668C55.6514 18.6172 56.5725 18.2923 57.6992 18.2923C58.7853 18.2923 59.6786 18.5892 60.379 19.183C61.0844 19.7768 61.4371 20.5331 61.4371 21.4517C61.4371 22.0404 61.2595 22.6241 60.9042 23.2026C60.549 23.7761 59.9044 24.5247 58.9706 25.4484L56.6715 27.7551V27.8845H61.6046V29.5518H53.9765V28.1891L57.6383 24.4435C58.3895 23.6822 58.8894 23.1113 59.1381 22.7306C59.3867 22.3449 59.5111 21.9592 59.5111 21.5735C59.5111 21.0913 59.3335 20.6929 58.9782 20.3783C58.628 20.0636 58.1814 19.9063 57.6383 19.9063C57.0648 19.9063 56.6004 20.0788 56.2452 20.4239C55.8899 20.7691 55.7123 21.2208 55.7123 21.779V21.8095H53.87V21.779Z" fill="black"/>
<path opacity="0.35" fill-rule="evenodd" clip-rule="evenodd" d="M351.84 18.1896H371.589C373.024 18.1896 374.187 19.353 374.187 20.7881V27.5443C374.187 28.9794 373.024 30.1428 371.589 30.1428H351.84C350.405 30.1428 349.241 28.9794 349.241 27.5443V20.7881C349.241 19.353 350.405 18.1896 351.84 18.1896ZM351.84 19.229C350.979 19.229 350.281 19.927 350.281 20.7881V27.5442C350.281 28.4053 350.979 29.1034 351.84 29.1034H371.589C372.45 29.1034 373.148 28.4053 373.148 27.5442V20.7881C373.148 19.927 372.45 19.229 371.589 19.229H351.84Z" fill="black"/>
<path opacity="0.4" fill-rule="evenodd" clip-rule="evenodd" d="M375.227 21.6194C376.152 22.0925 376.786 23.0553 376.786 24.1661C376.786 25.2769 376.152 26.2397 375.227 26.7128V21.6194Z" fill="black"/>
<path fill-rule="evenodd" clip-rule="evenodd" d="M352.36 20.2684H371.069C371.643 20.2684 372.108 20.7338 372.108 21.3078V27.0246C372.108 27.5986 371.643 28.064 371.069 28.064H352.36C351.786 28.064 351.32 27.5986 351.32 27.0246V21.3078C351.32 20.7338 351.786 20.2684 352.36 20.2684Z" fill="black"/>
<path fill-rule="evenodd" clip-rule="evenodd" d="M342.987 21.3317C341.001 19.635 338.491 18.7094 335.867 18.7094C333.235 18.7094 330.719 19.6405 328.73 21.3464L328.561 21.4913C328.424 21.6084 328.416 21.8167 328.544 21.9437L329.715 23.1118C329.829 23.2252 330.011 23.233 330.134 23.1296L330.279 23.0077C331.845 21.6919 333.812 20.9756 335.867 20.9756C337.915 20.9756 339.876 21.687 341.44 22.9947L341.585 23.116C341.708 23.2188 341.889 23.2109 342.003 23.0977L343.174 21.9294C343.302 21.8022 343.294 21.5936 343.157 21.4765L342.987 21.3317ZM335.867 22.3159C337.52 22.3159 339.108 22.8644 340.401 23.8803L340.584 24.0238C340.73 24.1383 340.743 24.354 340.612 24.4848L339.436 25.6568C339.327 25.7652 339.155 25.7777 339.032 25.6861L338.889 25.5796C338.015 24.9304 336.962 24.5822 335.867 24.5822C334.765 24.5822 333.706 24.9347 332.829 25.5914L332.686 25.6988C332.562 25.7912 332.39 25.779 332.281 25.6703L331.106 24.4987C330.975 24.3681 330.987 24.153 331.132 24.0383L331.314 23.8947C332.611 22.8698 334.205 22.3159 335.867 22.3159ZM335.867 25.9224C336.532 25.9224 337.178 26.0971 337.747 26.4301L337.977 26.5651C338.152 26.6674 338.183 26.9068 338.039 27.0497L336.071 29.013C335.95 29.1336 335.754 29.1336 335.633 29.013L333.677 27.0624C333.534 26.9201 333.564 26.6818 333.737 26.5788L333.965 26.4432C334.539 26.1017 335.193 25.9224 335.867 25.9224Z" fill="black"/>
<path opacity="0.25" fill-rule="evenodd" clip-rule="evenodd" d="M321.697 18.7094H322.736C323.31 18.7094 323.776 19.1747 323.776 19.7488V28.064C323.776 28.6381 323.31 29.1034 322.736 29.1034H321.697C321.123 29.1034 320.658 28.6381 320.658 28.064V19.7488C320.658 19.1747 321.123 18.7094 321.697 18.7094Z" fill="black"/>
<path fill-rule="evenodd" clip-rule="evenodd" d="M318.059 20.7881H317.02C316.446 20.7881 315.98 21.2534 315.98 21.8275V28.0639C315.98 28.638 316.446 29.1034 317.02 29.1034H318.059C318.633 29.1034 319.098 28.638 319.098 28.0639V21.8275C319.098 21.2534 318.633 20.7881 318.059 20.7881ZM312.342 22.8669H313.382C313.956 22.8669 314.421 23.3323 314.421 23.9063V28.0639C314.421 28.638 313.956 29.1034 313.382 29.1034H312.342C311.768 29.1034 311.303 28.638 311.303 28.0639V23.9063C311.303 23.3323 311.768 22.8669 312.342 22.8669ZM307.665 24.426H308.704C309.278 24.426 309.744 24.8914 309.744 25.4654V28.0639C309.744 28.638 309.278 29.1034 308.704 29.1034H307.665C307.091 29.1034 306.626 28.638 306.626 28.0639V25.4654C306.626 24.8914 307.091 24.426 307.665 24.426Z" fill="black"/>
<path fill-rule="evenodd" clip-rule="evenodd" d="M73.4633 29.9247L78.2053 18.9691L67.2497 23.7111H73.4633V29.9247Z" fill="black"/>
</svg>
