<svg width="71" height="8" viewBox="0 0 71 8" fill="none" xmlns="http://www.w3.org/2000/svg">
<ellipse cx="35.5" cy="3.97242" rx="3.94444" ry="3.97242" fill="#95C9B4"/>
<ellipse cx="51.2778" cy="3.97242" rx="3.94444" ry="3.97242" fill="#95C9B4"/>
<ellipse cx="67.0556" cy="3.97242" rx="3.94444" ry="3.97242" fill="#95C9B4"/>
<mask id="path-4-inside-1_36_3235" fill="white">
<path fill-rule="evenodd" clip-rule="evenodd" d="M3.97453 7.88878C3.9645 7.88885 3.95446 7.88889 3.94442 7.88889C3.93437 7.88889 3.92433 7.88885 3.91431 7.88878H3.65554V7.87847C1.61197 7.73055 0 6.02575 0 3.94444C0 1.86314 1.61197 0.158335 3.65554 0.0104169V0H3.94442H19.5054V0.00585859C19.5772 0.00196967 19.6494 0 19.7222 0C21.9006 0 23.6666 1.76599 23.6666 3.94444C23.6666 6.1229 21.9006 7.88889 19.7222 7.88889C19.6494 7.88889 19.5772 7.88692 19.5054 7.88303V7.88878H3.97453Z"/>
</mask>
<path fill-rule="evenodd" clip-rule="evenodd" d="M3.97453 7.88878C3.9645 7.88885 3.95446 7.88889 3.94442 7.88889C3.93437 7.88889 3.92433 7.88885 3.91431 7.88878H3.65554V7.87847C1.61197 7.73055 0 6.02575 0 3.94444C0 1.86314 1.61197 0.158335 3.65554 0.0104169V0H3.94442H19.5054V0.00585859C19.5772 0.00196967 19.6494 0 19.7222 0C21.9006 0 23.6666 1.76599 23.6666 3.94444C23.6666 6.1229 21.9006 7.88889 19.7222 7.88889C19.6494 7.88889 19.5772 7.88692 19.5054 7.88303V7.88878H3.97453Z" fill="#008060"/>
<path d="M3.97453 7.88878V7.39571L3.97085 7.39573L3.97453 7.88878ZM3.91431 7.88878L3.91799 7.39572H3.91431V7.88878ZM3.65554 7.88878H3.16249V8.38183H3.65554V7.88878ZM3.65554 7.87847H4.1486V7.41981L3.69114 7.3867L3.65554 7.87847ZM3.65554 0.0104169L3.69114 0.502186L4.1486 0.469074V0.0104169H3.65554ZM3.65554 0V-0.493056H3.16249V0H3.65554ZM19.5054 0H19.9984V-0.493056H19.5054V0ZM19.5054 0.00585859H19.0123V0.526349L19.532 0.498192L19.5054 0.00585859ZM19.5054 7.88303L19.532 7.3907L19.0123 7.36254V7.88303H19.5054ZM19.5054 7.88878V8.38183H19.9984V7.88878H19.5054ZM3.94442 8.38194C3.9557 8.38194 3.96696 8.3819 3.97821 8.38182L3.97085 7.39573C3.96204 7.3958 3.95323 7.39583 3.94442 7.39583V8.38194ZM3.91063 8.38182C3.92187 8.3819 3.93314 8.38194 3.94442 8.38194V7.39583C3.9356 7.39583 3.92679 7.3958 3.91799 7.39573L3.91063 8.38182ZM3.91431 7.39572H3.65554V8.38183H3.91431V7.39572ZM4.1486 7.88878V7.87847H3.16249V7.88878H4.1486ZM-0.493056 3.94444C-0.493056 6.28612 1.32044 8.2038 3.61995 8.37024L3.69114 7.3867C1.90351 7.25731 0.493056 5.76537 0.493056 3.94444H-0.493056ZM3.61995 -0.481352C1.32044 -0.314909 -0.493056 1.60276 -0.493056 3.94444H0.493056C0.493056 2.12352 1.90351 0.631578 3.69114 0.502186L3.61995 -0.481352ZM4.1486 0.0104169V0H3.16249V0.0104169H4.1486ZM3.65554 0.493056H3.94442V-0.493056H3.65554V0.493056ZM3.94442 0.493056H19.5054V-0.493056H3.94442V0.493056ZM19.0123 0V0.00585859H19.9984V0H19.0123ZM19.7222 -0.493056C19.6405 -0.493056 19.5594 -0.490845 19.4787 -0.486475L19.532 0.498192C19.5949 0.494784 19.6583 0.493056 19.7222 0.493056V-0.493056ZM24.1597 3.94444C24.1597 1.49368 22.1729 -0.493056 19.7222 -0.493056V0.493056C21.6283 0.493056 23.1736 2.03829 23.1736 3.94444H24.1597ZM19.7222 8.38194C22.1729 8.38194 24.1597 6.39521 24.1597 3.94444H23.1736C23.1736 5.8506 21.6283 7.39583 19.7222 7.39583V8.38194ZM19.4787 8.37536C19.5594 8.37973 19.6405 8.38194 19.7222 8.38194V7.39583C19.6583 7.39583 19.5949 7.3941 19.532 7.3907L19.4787 8.37536ZM19.0123 7.88303V7.88878H19.9984V7.88303H19.0123ZM19.5054 7.39572H3.97453V8.38183H19.5054V7.39572Z" fill="#008060" mask="url(#path-4-inside-1_36_3235)"/>
</svg>
