<svg width="71" height="8" viewBox="0 0 71 8" fill="none" xmlns="http://www.w3.org/2000/svg">
<ellipse cx="3.94444" cy="3.97242" rx="3.94444" ry="3.97242" fill="#95C9B4"/>
<ellipse cx="51.2778" cy="3.97242" rx="3.94444" ry="3.97242" fill="#95C9B4"/>
<ellipse cx="67.0556" cy="3.97242" rx="3.94444" ry="3.97242" fill="#95C9B4"/>
<mask id="path-4-inside-1_36_4414" fill="white">
<path fill-rule="evenodd" clip-rule="evenodd" d="M19.8634 7.88878C19.8534 7.88885 19.8434 7.88889 19.8333 7.88889C19.8233 7.88889 19.8132 7.88885 19.8032 7.88878H19.5444V7.87847C17.5009 7.73055 15.8889 6.02575 15.8889 3.94444C15.8889 1.86314 17.5009 0.158335 19.5444 0.0104169V0H19.8333H35.3943V0.00585859C35.466 0.00196967 35.5383 0 35.6111 0C37.7895 0 39.5555 1.76599 39.5555 3.94444C39.5555 6.1229 37.7895 7.88889 35.6111 7.88889C35.5383 7.88889 35.466 7.88692 35.3943 7.88303V7.88878H19.8634Z"/>
</mask>
<path fill-rule="evenodd" clip-rule="evenodd" d="M19.8634 7.88878C19.8534 7.88885 19.8434 7.88889 19.8333 7.88889C19.8233 7.88889 19.8132 7.88885 19.8032 7.88878H19.5444V7.87847C17.5009 7.73055 15.8889 6.02575 15.8889 3.94444C15.8889 1.86314 17.5009 0.158335 19.5444 0.0104169V0H19.8333H35.3943V0.00585859C35.466 0.00196967 35.5383 0 35.6111 0C37.7895 0 39.5555 1.76599 39.5555 3.94444C39.5555 6.1229 37.7895 7.88889 35.6111 7.88889C35.5383 7.88889 35.466 7.88692 35.3943 7.88303V7.88878H19.8634Z" fill="#008060"/>
<path d="M19.8634 7.88878V7.39571L19.8597 7.39573L19.8634 7.88878ZM19.8032 7.88878L19.8069 7.39572H19.8032V7.88878ZM19.5444 7.88878H19.0514V8.38183H19.5444V7.88878ZM19.5444 7.87847H20.0375V7.41981L19.58 7.3867L19.5444 7.87847ZM19.5444 0.0104169L19.58 0.502186L20.0375 0.469074V0.0104169H19.5444ZM19.5444 0V-0.493056H19.0514V0H19.5444ZM35.3943 0H35.8873V-0.493056H35.3943V0ZM35.3943 0.00585859H34.9012V0.526349L35.4209 0.498192L35.3943 0.00585859ZM35.3943 7.88303L35.4209 7.3907L34.9012 7.36254V7.88303H35.3943ZM35.3943 7.88878V8.38183H35.8873V7.88878H35.3943ZM19.8333 8.38194C19.8446 8.38194 19.8558 8.3819 19.8671 8.38182L19.8597 7.39573C19.8509 7.3958 19.8421 7.39583 19.8333 7.39583V8.38194ZM19.7995 8.38182C19.8108 8.3819 19.822 8.38194 19.8333 8.38194V7.39583C19.8245 7.39583 19.8157 7.3958 19.8069 7.39573L19.7995 8.38182ZM19.8032 7.39572H19.5444V8.38183H19.8032V7.39572ZM20.0375 7.88878V7.87847H19.0514V7.88878H20.0375ZM15.3958 3.94444C15.3958 6.28612 17.2093 8.2038 19.5088 8.37024L19.58 7.3867C17.7924 7.25731 16.3819 5.76537 16.3819 3.94444H15.3958ZM19.5088 -0.481352C17.2093 -0.314909 15.3958 1.60276 15.3958 3.94444H16.3819C16.3819 2.12352 17.7924 0.631578 19.58 0.502186L19.5088 -0.481352ZM20.0375 0.0104169V0H19.0514V0.0104169H20.0375ZM19.5444 0.493056H19.8333V-0.493056H19.5444V0.493056ZM19.8333 0.493056H35.3943V-0.493056H19.8333V0.493056ZM34.9012 0V0.00585859H35.8873V0H34.9012ZM35.6111 -0.493056C35.5294 -0.493056 35.4482 -0.490845 35.3676 -0.486475L35.4209 0.498192C35.4838 0.494784 35.5472 0.493056 35.6111 0.493056V-0.493056ZM40.0486 3.94444C40.0486 1.49368 38.0618 -0.493056 35.6111 -0.493056V0.493056C37.5172 0.493056 39.0624 2.03829 39.0624 3.94444H40.0486ZM35.6111 8.38194C38.0618 8.38194 40.0486 6.39521 40.0486 3.94444H39.0624C39.0624 5.8506 37.5172 7.39583 35.6111 7.39583V8.38194ZM35.3676 8.37536C35.4482 8.37973 35.5294 8.38194 35.6111 8.38194V7.39583C35.5472 7.39583 35.4838 7.3941 35.4209 7.3907L35.3676 8.37536ZM34.9012 7.88303V7.88878H35.8873V7.88303H34.9012ZM35.3943 7.39572H19.8634V8.38183H35.3943V7.39572Z" fill="#008060" mask="url(#path-4-inside-1_36_4414)"/>
</svg>
