<svg width="72" height="8" viewBox="0 0 72 8" fill="none" xmlns="http://www.w3.org/2000/svg">
<ellipse cx="3.94444" cy="3.97242" rx="3.94444" ry="3.97242" fill="#95C9B4"/>
<ellipse cx="19.8334" cy="3.97245" rx="3.94444" ry="3.97242" fill="#95C9B4"/>
<ellipse cx="35.7223" cy="3.97242" rx="3.94444" ry="3.97242" fill="#95C9B4"/>
<mask id="path-4-inside-1_36_4444" fill="white">
<path fill-rule="evenodd" clip-rule="evenodd" d="M51.6413 7.88878C51.6312 7.88885 51.6212 7.88889 51.6112 7.88889C51.6011 7.88889 51.5911 7.88885 51.5811 7.88878H51.3223V7.87847C49.2787 7.73055 47.6667 6.02575 47.6667 3.94444C47.6667 1.86314 49.2787 0.158335 51.3223 0.0104169V0H51.6112H67.1721V0.00585859C67.2439 0.00196967 67.3162 0 67.3889 0C69.5674 0 71.3334 1.76599 71.3334 3.94444C71.3334 6.1229 69.5674 7.88889 67.3889 7.88889C67.3162 7.88889 67.2439 7.88692 67.1721 7.88303V7.88878H51.6413Z"/>
</mask>
<path fill-rule="evenodd" clip-rule="evenodd" d="M51.6413 7.88878C51.6312 7.88885 51.6212 7.88889 51.6112 7.88889C51.6011 7.88889 51.5911 7.88885 51.5811 7.88878H51.3223V7.87847C49.2787 7.73055 47.6667 6.02575 47.6667 3.94444C47.6667 1.86314 49.2787 0.158335 51.3223 0.0104169V0H51.6112H67.1721V0.00585859C67.2439 0.00196967 67.3162 0 67.3889 0C69.5674 0 71.3334 1.76599 71.3334 3.94444C71.3334 6.1229 69.5674 7.88889 67.3889 7.88889C67.3162 7.88889 67.2439 7.88692 67.1721 7.88303V7.88878H51.6413Z" fill="#008060"/>
<path d="M51.6413 7.88878V7.39571L51.6376 7.39573L51.6413 7.88878ZM51.5811 7.88878L51.5847 7.39572H51.5811V7.88878ZM51.3223 7.88878H50.8292V8.38183H51.3223V7.88878ZM51.3223 7.87847H51.8153V7.41981L51.3579 7.3867L51.3223 7.87847ZM51.3223 0.0104169L51.3579 0.502186L51.8153 0.469074V0.0104169H51.3223ZM51.3223 0V-0.493056H50.8292V0H51.3223ZM67.1721 0H67.6652V-0.493056H67.1721V0ZM67.1721 0.00585859H66.6791V0.526349L67.1988 0.498192L67.1721 0.00585859ZM67.1721 7.88303L67.1988 7.3907L66.6791 7.36254V7.88303H67.1721ZM67.1721 7.88878V8.38183H67.6652V7.88878H67.1721ZM51.6112 8.38194C51.6224 8.38194 51.6337 8.3819 51.645 8.38182L51.6376 7.39573C51.6288 7.3958 51.62 7.39583 51.6112 7.39583V8.38194ZM51.5774 8.38182C51.5886 8.3819 51.5999 8.38194 51.6112 8.38194V7.39583C51.6024 7.39583 51.5935 7.3958 51.5847 7.39573L51.5774 8.38182ZM51.5811 7.39572H51.3223V8.38183H51.5811V7.39572ZM51.8153 7.88878V7.87847H50.8292V7.88878H51.8153ZM47.1737 3.94444C47.1737 6.28612 48.9872 8.2038 51.2867 8.37024L51.3579 7.3867C49.5703 7.25731 48.1598 5.76537 48.1598 3.94444H47.1737ZM51.2867 -0.481352C48.9872 -0.314909 47.1737 1.60276 47.1737 3.94444H48.1598C48.1598 2.12352 49.5703 0.631578 51.3579 0.502186L51.2867 -0.481352ZM51.8153 0.0104169V0H50.8292V0.0104169H51.8153ZM51.3223 0.493056H51.6112V-0.493056H51.3223V0.493056ZM51.6112 0.493056H67.1721V-0.493056H51.6112V0.493056ZM66.6791 0V0.00585859H67.6652V0H66.6791ZM67.3889 -0.493056C67.3073 -0.493056 67.2261 -0.490845 67.1454 -0.486475L67.1988 0.498192C67.2617 0.494784 67.3251 0.493056 67.3889 0.493056V-0.493056ZM71.8264 3.94444C71.8264 1.49368 69.8397 -0.493056 67.3889 -0.493056V0.493056C69.2951 0.493056 70.8403 2.03829 70.8403 3.94444H71.8264ZM67.3889 8.38194C69.8397 8.38194 71.8264 6.39521 71.8264 3.94444H70.8403C70.8403 5.8506 69.2951 7.39583 67.3889 7.39583V8.38194ZM67.1454 8.37536C67.2261 8.37973 67.3073 8.38194 67.3889 8.38194V7.39583C67.3251 7.39583 67.2617 7.3941 67.1988 7.3907L67.1454 8.37536ZM66.6791 7.88303V7.88878H67.6652V7.88303H66.6791ZM67.1721 7.39572H51.6413V8.38183H67.1721V7.39572Z" fill="#008060" mask="url(#path-4-inside-1_36_4444)"/>
</svg>
