<svg width="71" height="8" viewBox="0 0 71 8" fill="none" xmlns="http://www.w3.org/2000/svg">
<ellipse cx="3.94444" cy="3.97242" rx="3.94444" ry="3.97242" fill="#95C9B4"/>
<ellipse cx="19.8334" cy="3.97242" rx="3.94444" ry="3.97242" fill="#95C9B4"/>
<ellipse cx="67.0556" cy="3.97242" rx="3.94444" ry="3.97242" fill="#95C9B4"/>
<mask id="path-4-inside-1_36_4429" fill="white">
<path fill-rule="evenodd" clip-rule="evenodd" d="M35.7523 7.88878C35.7423 7.88885 35.7322 7.88889 35.7222 7.88889C35.7121 7.88889 35.7021 7.88885 35.6921 7.88878H35.4333V7.87847C33.3897 7.73055 31.7778 6.02575 31.7778 3.94444C31.7778 1.86314 33.3897 0.158335 35.4333 0.0104169V0H35.7222H51.2831V0.00585859C51.3549 0.00196967 51.4272 0 51.5 0C53.6784 0 55.4444 1.76599 55.4444 3.94444C55.4444 6.1229 53.6784 7.88889 51.5 7.88889C51.4272 7.88889 51.3549 7.88692 51.2831 7.88303V7.88878H35.7523Z"/>
</mask>
<path fill-rule="evenodd" clip-rule="evenodd" d="M35.7523 7.88878C35.7423 7.88885 35.7322 7.88889 35.7222 7.88889C35.7121 7.88889 35.7021 7.88885 35.6921 7.88878H35.4333V7.87847C33.3897 7.73055 31.7778 6.02575 31.7778 3.94444C31.7778 1.86314 33.3897 0.158335 35.4333 0.0104169V0H35.7222H51.2831V0.00585859C51.3549 0.00196967 51.4272 0 51.5 0C53.6784 0 55.4444 1.76599 55.4444 3.94444C55.4444 6.1229 53.6784 7.88889 51.5 7.88889C51.4272 7.88889 51.3549 7.88692 51.2831 7.88303V7.88878H35.7523Z" fill="#008060"/>
<path d="M35.7523 7.88878V7.39571L35.7486 7.39573L35.7523 7.88878ZM35.6921 7.88878L35.6958 7.39572H35.6921V7.88878ZM35.4333 7.88878H34.9403V8.38183H35.4333V7.88878ZM35.4333 7.87847H35.9264V7.41981L35.4689 7.3867L35.4333 7.87847ZM35.4333 0.0104169L35.4689 0.502186L35.9264 0.469074V0.0104169H35.4333ZM35.4333 0V-0.493056H34.9403V0H35.4333ZM51.2831 0H51.7762V-0.493056H51.2831V0ZM51.2831 0.00585859H50.7901V0.526349L51.3098 0.498192L51.2831 0.00585859ZM51.2831 7.88303L51.3098 7.3907L50.7901 7.36254V7.88303H51.2831ZM51.2831 7.88878V8.38183H51.7762V7.88878H51.2831ZM35.7222 8.38194C35.7335 8.38194 35.7447 8.3819 35.756 8.38182L35.7486 7.39573C35.7398 7.3958 35.731 7.39583 35.7222 7.39583V8.38194ZM35.6884 8.38182C35.6996 8.3819 35.7109 8.38194 35.7222 8.38194V7.39583C35.7134 7.39583 35.7046 7.3958 35.6958 7.39573L35.6884 8.38182ZM35.6921 7.39572H35.4333V8.38183H35.6921V7.39572ZM35.9264 7.88878V7.87847H34.9403V7.88878H35.9264ZM31.2847 3.94444C31.2847 6.28612 33.0982 8.2038 35.3977 8.37024L35.4689 7.3867C33.6813 7.25731 32.2708 5.76537 32.2708 3.94444H31.2847ZM35.3977 -0.481352C33.0982 -0.314909 31.2847 1.60276 31.2847 3.94444H32.2708C32.2708 2.12352 33.6813 0.631578 35.4689 0.502186L35.3977 -0.481352ZM35.9264 0.0104169V0H34.9403V0.0104169H35.9264ZM35.4333 0.493056H35.7222V-0.493056H35.4333V0.493056ZM35.7222 0.493056H51.2831V-0.493056H35.7222V0.493056ZM50.7901 0V0.00585859H51.7762V0H50.7901ZM51.5 -0.493056C51.4183 -0.493056 51.3371 -0.490845 51.2565 -0.486475L51.3098 0.498192C51.3727 0.494784 51.4361 0.493056 51.5 0.493056V-0.493056ZM55.9374 3.94444C55.9374 1.49368 53.9507 -0.493056 51.5 -0.493056V0.493056C53.4061 0.493056 54.9513 2.03829 54.9513 3.94444H55.9374ZM51.5 8.38194C53.9507 8.38194 55.9374 6.39521 55.9374 3.94444H54.9513C54.9513 5.8506 53.4061 7.39583 51.5 7.39583V8.38194ZM51.2565 8.37536C51.3371 8.37973 51.4183 8.38194 51.5 8.38194V7.39583C51.4361 7.39583 51.3727 7.3941 51.3098 7.3907L51.2565 8.37536ZM50.7901 7.88303V7.88878H51.7762V7.88303H50.7901ZM51.2831 7.39572H35.7523V8.38183H51.2831V7.39572Z" fill="#008060" mask="url(#path-4-inside-1_36_4429)"/>
</svg>
